<svg width="30" height="39" viewBox="0 0 30 39" fill="none" xmlns="http://www.w3.org/2000/svg">
<path d="M10.5884 0H8.82349V1.77294H10.5884V0Z" fill="white"/>
<path d="M12.3533 0H10.5884V1.77294H12.3533V0Z" fill="white"/>
<path d="M8.82351 1.77295H7.05859V3.54589H8.82351V1.77295Z" fill="white"/>
<path d="M14.1182 1.77295H12.3533V3.54589H14.1182V1.77295Z" fill="white"/>
<path d="M8.82351 3.5459H7.05859V5.31884H8.82351V3.5459Z" fill="white"/>
<path d="M14.1182 3.5459H12.3533V5.31884H14.1182V3.5459Z" fill="white"/>
<path d="M8.82351 5.31769H7.05859V7.09063H8.82351V5.31769Z" fill="white"/>
<path d="M14.1182 5.31769H12.3533V7.09063H14.1182V5.31769Z" fill="white"/>
<path d="M8.82351 7.09058H7.05859V8.86352H8.82351V7.09058Z" fill="white"/>
<path d="M14.1182 7.09058H12.3533V8.86352H14.1182V7.09058Z" fill="white"/>
<path d="M8.82351 8.86353H7.05859V10.6365H8.82351V8.86353Z" fill="white"/>
<path d="M14.1182 8.86353H12.3533V10.6365H14.1182V8.86353Z" fill="white"/>
<path d="M15.8819 8.86353H14.1169V10.6365H15.8819V8.86353Z" fill="white"/>
<path d="M17.6468 8.86353H15.8818V10.6365H17.6468V8.86353Z" fill="white"/>
<path d="M8.82351 10.6365H7.05859V12.4094H8.82351V10.6365Z" fill="white"/>
<path d="M14.1182 10.6365H12.3533V12.4094H14.1182V10.6365Z" fill="white"/>
<path d="M19.4116 10.6365H17.6467V12.4094H19.4116V10.6365Z" fill="white"/>
<path d="M21.1765 10.6365H19.4116V12.4094H21.1765V10.6365Z" fill="white"/>
<path d="M22.9414 10.6365H21.1765V12.4094H22.9414V10.6365Z" fill="white"/>
<path d="M8.82351 12.4094H7.05859V14.1824H8.82351V12.4094Z" fill="white"/>
<path d="M14.1182 12.4094H12.3533V14.1824H14.1182V12.4094Z" fill="white"/>
<path d="M19.4116 12.4094H17.6467V14.1824H19.4116V12.4094Z" fill="white"/>
<path d="M24.7053 12.4094H22.9404V14.1824H24.7053V12.4094Z" fill="white"/>
<path d="M26.4702 12.4094H24.7053V14.1824H26.4702V12.4094Z" fill="white"/>
<path d="M8.82351 14.1812H7.05859V15.9541H8.82351V14.1812Z" fill="white"/>
<path d="M14.1182 14.1812H12.3533V15.9541H14.1182V14.1812Z" fill="white"/>
<path d="M19.4116 14.1812H17.6467V15.9541H19.4116V14.1812Z" fill="white"/>
<path d="M24.7053 14.1812H22.9404V15.9541H24.7053V14.1812Z" fill="white"/>
<path d="M28.2351 14.1812H26.4702V15.9541H28.2351V14.1812Z" fill="white"/>
<path d="M1.76491 15.9541H0V17.727H1.76491V15.9541Z" fill="white"/>
<path d="M3.52981 15.9541H1.76489V17.727H3.52981V15.9541Z" fill="white"/>
<path d="M5.2947 15.9541H3.52979V17.727H5.2947V15.9541Z" fill="white"/>
<path d="M8.82351 15.9541H7.05859V17.727H8.82351V15.9541Z" fill="white"/>
<path d="M14.1182 15.9541H12.3533V17.727H14.1182V15.9541Z" fill="white"/>
<path d="M19.4116 15.9541H17.6467V17.727H19.4116V15.9541Z" fill="white"/>
<path d="M19.4116 17.7271H17.6467V19.5H19.4116V17.7271Z" fill="white"/>
<path d="M24.7053 15.9541H22.9404V17.727H24.7053V15.9541Z" fill="white"/>
<path d="M30 15.9541H28.2351V17.727H30V15.9541Z" fill="white"/>
<path d="M1.76491 17.7271H0V19.5H1.76491V17.7271Z" fill="white"/>
<path d="M7.05837 17.7271H5.29346V19.5H7.05837V17.7271Z" fill="white"/>
<path d="M8.82351 17.7271H7.05859V19.5H8.82351V17.7271Z" fill="white"/>
<path d="M24.7053 17.7271H22.9404V19.5H24.7053V17.7271Z" fill="white"/>
<path d="M24.7053 19.5H22.9404V21.2729H24.7053V19.5Z" fill="white"/>
<path d="M30 17.7271H28.2351V19.5H30V17.7271Z" fill="white"/>
<path d="M1.76491 19.5H0V21.2729H1.76491V19.5Z" fill="white"/>
<path d="M8.82351 19.5H7.05859V21.2729H8.82351V19.5Z" fill="white"/>
<path d="M30 19.5H28.2351V21.2729H30V19.5Z" fill="white"/>
<path d="M3.52981 21.2729H1.76489V23.0459H3.52981V21.2729Z" fill="white"/>
<path d="M30 21.2729H28.2351V23.0459H30V21.2729Z" fill="white"/>
<path d="M5.2947 23.0447H3.52979V24.8176H5.2947V23.0447Z" fill="white"/>
<path d="M30 23.0447H28.2351V24.8176H30V23.0447Z" fill="white"/>
<path d="M5.2947 24.8176H3.52979V26.5906H5.2947V24.8176Z" fill="white"/>
<path d="M30 24.8176H28.2351V26.5906H30V24.8176Z" fill="white"/>
<path d="M7.05837 26.5906H5.29346V28.3635H7.05837V26.5906Z" fill="white"/>
<path d="M30 26.5906H28.2351V28.3635H30V26.5906Z" fill="white"/>
<path d="M7.05837 28.3635H5.29346V30.1365H7.05837V28.3635Z" fill="white"/>
<path d="M28.2351 28.3635H26.4702V30.1365H28.2351V28.3635Z" fill="white"/>
<path d="M8.82351 30.1365H7.05859V31.9094H8.82351V30.1365Z" fill="white"/>
<path d="M28.2351 30.1365H26.4702V31.9094H28.2351V30.1365Z" fill="white"/>
<path d="M8.82351 31.9094H7.05859V33.6824H8.82351V31.9094Z" fill="white"/>
<path d="M28.2351 31.9094H26.4702V33.6824H28.2351V31.9094Z" fill="white"/>
<path d="M10.5884 33.6812H8.82349V35.4541H10.5884V33.6812Z" fill="white"/>
<path d="M26.4702 33.6812H24.7053V35.4541H26.4702V33.6812Z" fill="white"/>
<path d="M10.5884 35.4541H8.82349V37.227H10.5884V35.4541Z" fill="white"/>
<path d="M26.4702 35.4541H24.7053V37.227H26.4702V35.4541Z" fill="white"/>
<path d="M10.5884 37.2271H8.82349V39H10.5884V37.2271Z" fill="white"/>
<path d="M12.3533 37.2271H10.5884V39H12.3533V37.2271Z" fill="white"/>
<path d="M14.1182 37.2271H12.3533V39H14.1182V37.2271Z" fill="white"/>
<path d="M15.8819 37.2271H14.1169V39H15.8819V37.2271Z" fill="white"/>
<path d="M17.6468 37.2271H15.8818V39H17.6468V37.2271Z" fill="white"/>
<path d="M19.4116 37.2271H17.6467V39H19.4116V37.2271Z" fill="white"/>
<path d="M21.1765 37.2271H19.4116V39H21.1765V37.2271Z" fill="white"/>
<path d="M22.9414 37.2271H21.1765V39H22.9414V37.2271Z" fill="white"/>
<path d="M24.7053 37.2271H22.9404V39H24.7053V37.2271Z" fill="white"/>
<path d="M26.4702 37.2271H24.7053V39H26.4702V37.2271Z" fill="white"/>
</svg>
